<svg xmlns="http://www.w3.org/2000/svg" viewBox="0 0 1400 720" role="img" aria-labelledby="title desc">
  <title id="title">Exchange Resolve storyboard</title><desc id="desc">Four frames show Available, Approach, Exchange, and Resolve phases across 520 milliseconds.</desc>
  <rect width="1400" height="720" fill="#11110F"/>
  <g font-family="ui-monospace, SFMono-Regular, Menlo, monospace"><text x="64" y="68" font-size="18" letter-spacing="2" fill="#9C9890">FVI-400 / EXCHANGE RESOLVE</text><text x="64" y="112" font-size="36" fill="#F4F3EE">Relationship becomes visible through time.</text></g>
  <g transform="translate(64 190)" font-family="ui-monospace, monospace">
    <g><rect width="292" height="360" fill="#1A1917" stroke="#34322D"/><text x="20" y="34" font-size="13" fill="#9C9890">00 MS · AVAILABLE</text><g transform="translate(26 94)" fill="#F4F3EE" opacity=".56"><g transform="translate(-10)"><path d="M8 13C44 18 78 29 109 45V58C76 42 42 32 9 28Z"/><path d="M14 44C48 50 81 62 109 77V90C78 75 48 64 19 59Z"/><path d="M27 76C57 83 84 95 109 109V123C81 107 57 97 36 92Z"/><path d="M18 146C55 134 84 118 109 98V114C81 136 51 152 13 159Z"/></g><g transform="translate(250) scale(-1 1)"><path d="M8 13C44 18 78 29 109 45V58C76 42 42 32 9 28Z"/><path d="M14 44C48 50 81 62 109 77V90C78 75 48 64 19 59Z"/><path d="M27 76C57 83 84 95 109 109V123C81 107 57 97 36 92Z"/><path d="M18 146C55 134 84 118 109 98V114C81 136 51 152 13 159Z"/></g></g><text x="20" y="330" font-size="13" fill="#9C9890">counterparts remain legible</text></g>
    <g transform="translate(316)"><rect width="292" height="360" fill="#1A1917" stroke="#34322D"/><text x="20" y="34" font-size="13" fill="#9C9890">220 MS · APPROACH</text><g transform="translate(26 94)" fill="#F4F3EE" opacity=".78"><g transform="translate(-5)"><path d="M8 13C44 18 78 29 109 45V58C76 42 42 32 9 28Z"/><path d="M14 44C48 50 81 62 109 77V90C78 75 48 64 19 59Z"/><path d="M27 76C57 83 84 95 109 109V123C81 107 57 97 36 92Z"/><path d="M18 146C55 134 84 118 109 98V114C81 136 51 152 13 159Z"/></g><g transform="translate(245) scale(-1 1)"><path d="M8 13C44 18 78 29 109 45V58C76 42 42 32 9 28Z"/><path d="M14 44C48 50 81 62 109 77V90C78 75 48 64 19 59Z"/><path d="M27 76C57 83 84 95 109 109V123C81 107 57 97 36 92Z"/><path d="M18 146C55 134 84 118 109 98V114C81 136 51 152 13 159Z"/></g></g><text x="20" y="330" font-size="13" fill="#9C9890">short travel · no rotation</text></g>
    <g transform="translate(632)"><rect width="292" height="360" fill="#1A1917" stroke="#34322D"/><text x="20" y="34" font-size="13" fill="#9C9890">335 MS · EXCHANGE</text><g transform="translate(26 94)" fill="#F4F3EE" opacity=".94"><path d="M8 13C44 18 78 29 109 45V58C76 42 42 32 9 28Z"/><path d="M14 44C48 50 81 62 109 77V90C78 75 48 64 19 59Z"/><path d="M27 76C57 83 84 95 109 109V123C81 107 57 97 36 92Z"/><path d="M18 146C55 134 84 118 109 98V114C81 136 51 152 13 159Z"/><g transform="translate(240) scale(-1 1)"><path d="M8 13C44 18 78 29 109 45V58C76 42 42 32 9 28Z"/><path d="M14 44C48 50 81 62 109 77V90C78 75 48 64 19 59Z"/><path d="M27 76C57 83 84 95 109 109V123C81 107 57 97 36 92Z"/><path d="M18 146C55 134 84 118 109 98V114C81 136 51 152 13 159Z"/></g><circle cx="120" cy="104" r="5" fill="#62DFAE"/></g><text x="20" y="330" font-size="13" fill="#9C9890">interval remains open</text></g>
    <g transform="translate(948)"><rect width="292" height="360" fill="#1A1917" stroke="#34322D"/><text x="20" y="34" font-size="13" fill="#9C9890">520 MS · RESOLVE</text><g transform="translate(26 94)" fill="#F4F3EE"><path d="M8 13C44 18 78 29 109 45V58C76 42 42 32 9 28Z"/><path d="M14 44C48 50 81 62 109 77V90C78 75 48 64 19 59Z"/><path d="M27 76C57 83 84 95 109 109V123C81 107 57 97 36 92Z"/><path d="M18 146C55 134 84 118 109 98V114C81 136 51 152 13 159Z"/><g transform="translate(240) scale(-1 1)"><path d="M8 13C44 18 78 29 109 45V58C76 42 42 32 9 28Z"/><path d="M14 44C48 50 81 62 109 77V90C78 75 48 64 19 59Z"/><path d="M27 76C57 83 84 95 109 109V123C81 107 57 97 36 92Z"/><path d="M18 146C55 134 84 118 109 98V114C81 136 51 152 13 159Z"/></g></g><text x="20" y="330" font-size="13" fill="#9C9890">canonical geometry holds</text></g>
  </g>
  <path d="M64 604H1304" stroke="#34322D"/><g font-family="ui-monospace, monospace" font-size="14"><text x="64" y="642" fill="#9C9890">EASING</text><text x="154" y="642" fill="#F4F3EE">cubic-bezier(0.2, 0.8, 0.2, 1)</text><text x="656" y="642" fill="#9C9890">REDUCED MOTION</text><text x="822" y="642" fill="#F4F3EE">resolved static state</text></g>
</svg>
