<svg xmlns="http://www.w3.org/2000/svg" viewBox="0 0 1200 760" role="img" aria-labelledby="title desc">
  <title id="title">Facework identity construction grid</title>
  <desc id="desc">A measurement board defining the central interval x, primary signature gap, alignment, and minimum clear space.</desc>
  <rect width="1200" height="760" fill="#FAFAF8"/>
  <g font-family="ui-monospace, SFMono-Regular, Menlo, monospace" fill="#1A1917">
    <text x="64" y="70" font-size="18" letter-spacing="2">FVI-200 / CONSTRUCTION</text>
    <text x="64" y="112" font-size="38">One interval governs the signature.</text>
    <text x="64" y="151" font-size="16" fill="#6B6861">x = the open center of Axis Exchange · protected space ≥ 1x</text>
  </g>
  <g transform="translate(100 250) scale(1.25)" fill="#1A1917">
    <path d="M8 13C44 18 78 29 109 45V58C76 42 42 32 9 28Z"/><path d="M14 44C48 50 81 62 109 77V90C78 75 48 64 19 59Z"/><path d="M27 76C57 83 84 95 109 109V123C81 107 57 97 36 92Z"/><path d="M18 146C55 134 84 118 109 98V114C81 136 51 152 13 159Z"/>
    <g transform="translate(240) scale(-1 1)"><path d="M8 13C44 18 78 29 109 45V58C76 42 42 32 9 28Z"/><path d="M14 44C48 50 81 62 109 77V90C78 75 48 64 19 59Z"/><path d="M27 76C57 83 84 95 109 109V123C81 107 57 97 36 92Z"/><path d="M18 146C55 134 84 118 109 98V114C81 136 51 152 13 159Z"/></g>
  </g>
  <g stroke="#E66F70" fill="none" stroke-width="2">
    <path d="M236 223V489M264 223V489" stroke-dasharray="6 6"/>
    <path d="M236 212H264M236 204V220M264 204V220"/>
  </g>
  <text x="244" y="196" font-family="ui-monospace, monospace" font-size="18" fill="#E66F70">x</text>
  <g transform="translate(457 286) scale(.76)" fill="none" stroke="#1A1917" stroke-width="8" stroke-linecap="square" stroke-linejoin="miter">
    <path d="M8 70V10H50M8 39H43"/><path d="M67 70L90 10L113 70M76 47H104"/><path d="M183 22C176 13 168 10 157 10C140 10 131 21 131 40C131 59 140 70 157 70C168 70 176 67 183 58"/><path d="M207 10V70M207 10H251M207 39H245M207 70H251"/><path d="M273 10L284 70L305 38L326 70L337 10"/><path d="M382 10C365 10 356 21 356 40C356 59 365 70 382 70C399 70 408 59 408 40C408 21 399 10 382 10Z"/><path d="M433 70V10H458C473 10 481 18 481 30C481 42 473 49 458 49H433M458 49L484 70"/><path d="M509 10V70M551 10L509 48M526 33L554 70"/>
  </g>
  <g stroke="#8FAFFF" fill="none" stroke-width="2" stroke-dasharray="7 7">
    <rect x="72" y="222" width="1040" height="300"/>
    <path d="M64 372H1120"/><path d="M405 222V522"/>
  </g>
  <g font-family="ui-monospace, monospace" font-size="15" fill="#2C2B27">
    <text x="76" y="548">1x protected field</text><text x="365" y="548">1.7x optical gap</text><text x="930" y="548">shared visual axis</text>
  </g>
  <g transform="translate(64 630)" font-family="ui-monospace, monospace" font-size="14">
    <rect width="1072" height="1" fill="#E5E3DC"/>
    <text y="36" fill="#6B6861">Construction values describe relationships. Production assets remain authoritative.</text>
  </g>
</svg>
